<svg id="barcode" width="436px" height="142px" x="0px" y="0px" viewBox="0 0 436 142" xmlns="http://www.w3.org/2000/svg" version="1.1" style="transform: translate(0px, 0px);"><rect x="0" y="0" width="436" height="142" style="fill:transparent;"/><g transform="translate(10, 10)" style="fill:#000000;"><rect x="0" y="0" width="2" height="100"/><rect x="8" y="0" width="2" height="100"/><rect x="12" y="0" width="3" height="100"/><rect x="20" y="0" width="3" height="100"/><rect x="28" y="0" width="2" height="100"/><rect x="32" y="0" width="3" height="100"/><rect x="40" y="0" width="2" height="100"/><rect x="48" y="0" width="2" height="100"/><rect x="52" y="0" width="2" height="100"/><rect x="56" y="0" width="3" height="100"/><rect x="64" y="0" width="3" height="100"/><rect x="72" y="0" width="3" height="100"/><rect x="84" y="0" width="2" height="100"/><rect x="88" y="0" width="2" height="100"/><rect x="92" y="0" width="2" height="100"/><rect x="96" y="0" width="2" height="100"/><rect x="100" y="0" width="3" height="100"/><rect x="112" y="0" width="2" height="100"/><rect x="116" y="0" width="2" height="100"/><rect x="120" y="0" width="3" height="100"/><rect x="128" y="0" width="3" height="100"/><rect x="136" y="0" width="2" height="100"/><rect x="144" y="0" width="3" height="100"/><rect x="152" y="0" width="2" height="100"/><rect x="156" y="0" width="2" height="100"/><rect x="160" y="0" width="2" height="100"/><rect x="164" y="0" width="3" height="100"/><rect x="176" y="0" width="3" height="100"/><rect x="184" y="0" width="2" height="100"/><rect x="188" y="0" width="2" height="100"/><rect x="192" y="0" width="3" height="100"/><rect x="200" y="0" width="3" height="100"/><rect x="212" y="0" width="2" height="100"/><rect x="216" y="0" width="2" height="100"/><rect x="220" y="0" width="2" height="100"/><rect x="224" y="0" width="3" height="100"/><rect x="232" y="0" width="2" height="100"/><rect x="240" y="0" width="2" height="100"/><rect x="244" y="0" width="3" height="100"/><rect x="252" y="0" width="2" height="100"/><rect x="256" y="0" width="2" height="100"/><rect x="260" y="0" width="3" height="100"/><rect x="272" y="0" width="2" height="100"/><rect x="276" y="0" width="2" height="100"/><rect x="280" y="0" width="3" height="100"/><rect x="288" y="0" width="2" height="100"/><rect x="292" y="0" width="3" height="100"/><rect x="304" y="0" width="2" height="100"/><rect x="308" y="0" width="3" height="100"/><rect x="316" y="0" width="2" height="100"/><rect x="320" y="0" width="3" height="100"/><rect x="328" y="0" width="3" height="100"/><rect x="340" y="0" width="2" height="100"/><rect x="344" y="0" width="2" height="100"/><rect x="348" y="0" width="2" height="100"/><rect x="352" y="0" width="2" height="100"/><rect x="356" y="0" width="2" height="100"/><rect x="364" y="0" width="3" height="100"/><rect x="372" y="0" width="2" height="100"/><rect x="376" y="0" width="3" height="100"/><rect x="384" y="0" width="2" height="100"/><rect x="392" y="0" width="2" height="100"/><rect x="396" y="0" width="3" height="100"/><rect x="404" y="0" width="3" height="100"/><rect x="412" y="0" width="2" height="100"/><text style="font: 20px monospace" text-anchor="middle" x="208" y="122">13256382934</text></g></svg>