<svg version="1.1" viewBox="474.434 292.911 189.632 45.824"  xml:space="preserve" xmlns="http://www.w3.org/2000/svg" xmlns:xlink="http://www.w3.org/1999/xlink">
<g fill="#e4a348" opacity="1" stroke="none">
<path d="M492.098 338.735C488.6 338.735 485.517 338.052 482.85 336.687C480.184 335.322 478.114 333.391 476.642 330.895C475.17 328.399 474.434 325.508 474.434 322.223L474.434 309.295C474.434 306.052 475.17 303.194 476.642 300.719C478.114 298.244 480.184 296.324 482.85 294.959C485.517 293.594 488.6 292.911 492.098 292.911C495.597 292.911 498.68 293.551 501.346 294.831C504.013 296.111 506.082 297.914 507.554 300.239C509.026 302.564 509.762 305.263 509.762 308.335C509.762 308.719 509.378 308.954 508.61 309.039L499.01 309.679L498.69 309.679C498.05 309.679 497.73 309.572 497.73 309.359L497.73 308.975C497.73 307.226 497.218 305.828 496.194 304.783C495.17 303.738 493.805 303.215 492.098 303.215C490.392 303.215 489.026 303.738 488.002 304.783C486.978 305.828 486.466 307.226 486.466 308.975L486.466 322.735C486.466 324.442 486.978 325.818 488.002 326.863C489.026 327.908 490.392 328.431 492.098 328.431C493.805 328.431 495.17 327.908 496.194 326.863C497.218 325.818 497.73 324.442 497.73 322.735C497.73 322.522 497.848 322.34 498.082 322.191C498.317 322.042 498.626 321.988 499.01 322.031L508.61 322.543C509.378 322.586 509.762 322.692 509.762 322.863L509.762 323.183C509.762 326.255 509.026 328.964 507.554 331.311C506.082 333.658 504.013 335.482 501.346 336.783C498.68 338.084 495.597 338.735 492.098 338.735Z"/>
<path d="M525.058 338.095C524.248 338.095 523.842 337.69 523.842 336.879L523.842 323.119C523.842 322.948 523.8 322.735 523.714 322.479L510.85 294.831C510.765 294.575 510.722 294.383 510.722 294.255C510.722 293.7 511.085 293.423 511.81 293.423L522.242 293.423C522.968 293.423 523.437 293.743 523.65 294.383L529.538 309.167C529.624 309.338 529.73 309.423 529.858 309.423C529.986 309.423 530.093 309.338 530.178 309.167L536.066 294.383C536.28 293.743 536.749 293.423 537.474 293.423L547.97 293.423C548.696 293.423 549.058 293.7 549.058 294.255C549.058 294.383 549.016 294.575 548.93 294.831L535.938 322.479C535.853 322.735 535.81 322.948 535.81 323.119L535.81 336.879C535.81 337.69 535.405 338.095 534.594 338.095L525.058 338.095Z"/>
<path d="M582.658 314.799C582.488 314.884 582.402 314.991 582.402 315.119C582.402 315.247 582.488 315.354 582.658 315.439C584.45 316.506 585.784 317.86 586.658 319.503C587.533 321.146 587.97 323.119 587.97 325.423C587.97 329.818 586.434 333.05 583.362 335.119C580.29 337.188 576.301 338.223 571.394 338.223L554.434 338.223C553.624 338.223 553.218 337.818 553.218 337.007L553.218 294.639C553.218 293.828 553.624 293.423 554.434 293.423L570.818 293.423C576.28 293.423 580.386 294.394 583.138 296.335C585.89 298.276 587.266 301.53 587.266 306.095C587.266 310.063 585.73 312.964 582.658 314.799ZM565.762 303.727C565.421 303.727 565.25 303.898 565.25 304.239L565.25 310.255C565.25 310.596 565.421 310.767 565.762 310.767L570.818 310.767C573.933 310.767 575.49 309.594 575.49 307.247C575.49 304.9 573.933 303.727 570.818 303.727L565.762 303.727ZM571.394 327.919C574.424 327.919 575.938 326.66 575.938 324.143C575.938 321.754 574.445 320.559 571.458 320.559L565.762 320.559C565.421 320.559 565.25 320.73 565.25 321.071L565.25 327.407C565.25 327.748 565.421 327.919 565.762 327.919L571.394 327.919Z"/>
<path d="M625.026 302.511C625.026 303.322 624.621 303.727 623.81 303.727L605.122 303.727C604.781 303.727 604.61 303.898 604.61 304.239L604.61 309.871C604.61 310.212 604.781 310.383 605.122 310.383L616.514 310.383C617.325 310.383 617.73 310.788 617.73 311.599L617.73 319.407C617.73 320.218 617.325 320.623 616.514 320.623L605.122 320.623C604.781 320.623 604.61 320.794 604.61 321.135L604.61 327.407C604.61 327.748 604.781 327.919 605.122 327.919L623.81 327.919C624.621 327.919 625.026 328.324 625.026 329.135L625.026 337.007C625.026 337.818 624.621 338.223 623.81 338.223L593.794 338.223C592.984 338.223 592.578 337.818 592.578 337.007L592.578 294.639C592.578 293.828 592.984 293.423 593.794 293.423L623.81 293.423C624.621 293.423 625.026 293.828 625.026 294.639L625.026 302.511Z"/>
<path d="M652.866 338.223C652.184 338.223 651.714 337.924 651.458 337.327L644.546 321.391C644.461 321.135 644.248 321.007 643.906 321.007L641.602 321.007C641.261 321.007 641.09 321.178 641.09 321.519L641.09 337.007C641.09 337.818 640.685 338.223 639.874 338.223L630.274 338.223C629.464 338.223 629.058 337.818 629.058 337.007L629.058 294.639C629.058 293.828 629.464 293.423 630.274 293.423L649.41 293.423C652.312 293.423 654.861 294.02 657.058 295.215C659.256 296.41 660.962 298.084 662.178 300.239C663.394 302.394 664.002 304.879 664.002 307.695C664.002 310.468 663.33 312.9 661.986 314.991C660.642 317.082 658.776 318.639 656.386 319.663C656.088 319.791 656.002 320.004 656.13 320.303L663.938 336.815C664.024 336.986 664.066 337.199 664.066 337.455C664.066 337.967 663.725 338.223 663.042 338.223L652.866 338.223ZM641.602 303.727C641.261 303.727 641.09 303.898 641.09 304.239L641.09 311.343C641.09 311.684 641.261 311.855 641.602 311.855L647.426 311.855C648.792 311.855 649.901 311.482 650.754 310.735C651.608 309.988 652.034 309.018 652.034 307.823C652.034 306.586 651.608 305.594 650.754 304.847C649.901 304.1 648.792 303.727 647.426 303.727L641.602 303.727Z"/>
</g>
</svg>
