<svg height="100%" stroke-miterlimit="10" style="fill-rule:nonzero;clip-rule:evenodd;stroke-linecap:round;stroke-linejoin:round;" version="1.1" viewBox="475.01 292.911 155.84 45.824" width="100%" xml:space="preserve" xmlns="http://www.w3.org/2000/svg" xmlns:xlink="http://www.w3.org/1999/xlink">
<defs/>
<g fill="#e4a348" opacity="1" stroke="none">
<path d="M476.226 338.223C475.416 338.223 475.01 337.818 475.01 337.007L475.01 294.639C475.01 293.828 475.416 293.423 476.226 293.423L485.762 293.423C486.445 293.423 486.936 293.7 487.234 294.255L494.978 306.863C495.064 307.034 495.192 307.119 495.362 307.119C495.533 307.119 495.661 307.034 495.746 306.863L503.49 294.255C503.789 293.7 504.28 293.423 504.962 293.423L514.498 293.423C515.309 293.423 515.714 293.828 515.714 294.639L515.714 337.007C515.714 337.818 515.309 338.223 514.498 338.223L504.898 338.223C504.088 338.223 503.682 337.818 503.682 337.007L503.682 314.415C503.682 314.159 503.608 314.01 503.458 313.967C503.309 313.924 503.17 314.01 503.042 314.223L499.074 320.815C498.776 321.37 498.285 321.647 497.602 321.647L493.122 321.647C492.44 321.647 491.949 321.37 491.65 320.815L487.682 314.223C487.554 314.052 487.426 313.967 487.298 313.967C487.128 313.967 487.042 314.116 487.042 314.415L487.042 337.007C487.042 337.818 486.637 338.223 485.826 338.223L476.226 338.223Z"/>
<path d="M537.986 338.735C534.53 338.735 531.469 338.074 528.802 336.751C526.136 335.428 524.077 333.551 522.626 331.119C521.176 328.687 520.45 325.871 520.45 322.671L520.45 294.639C520.45 293.828 520.856 293.423 521.666 293.423L531.266 293.423C532.077 293.423 532.482 293.828 532.482 294.639L532.482 322.671C532.482 324.42 532.984 325.818 533.986 326.863C534.989 327.908 536.322 328.431 537.986 328.431C539.608 328.431 540.92 327.898 541.922 326.831C542.925 325.764 543.426 324.378 543.426 322.671L543.426 294.639C543.426 293.828 543.832 293.423 544.642 293.423L554.242 293.423C555.053 293.423 555.458 293.828 555.458 294.639L555.458 322.671C555.458 325.871 554.733 328.687 553.282 331.119C551.832 333.551 549.784 335.428 547.138 336.751C544.493 338.074 541.442 338.735 537.986 338.735Z"/>
<path d="M576.834 338.735C573.378 338.735 570.328 338.148 567.682 336.975C565.037 335.802 562.989 334.127 561.538 331.951C560.088 329.775 559.362 327.258 559.362 324.399L559.362 323.759C559.362 322.948 559.768 322.543 560.578 322.543L569.986 322.543C570.797 322.543 571.202 322.756 571.202 323.183L571.202 323.887C571.202 325.039 571.821 326.084 573.058 327.023C574.296 327.962 575.853 328.431 577.73 328.431C579.309 328.431 580.44 328.1 581.122 327.439C581.805 326.778 582.146 326.042 582.146 325.231C582.146 324.292 581.72 323.588 580.866 323.119C580.013 322.65 578.456 322.074 576.194 321.391L574.338 320.879C570.114 319.599 566.573 317.892 563.714 315.759C560.856 313.626 559.426 310.532 559.426 306.479C559.426 303.791 560.152 301.412 561.602 299.343C563.053 297.274 565.048 295.684 567.586 294.575C570.125 293.466 572.973 292.911 576.13 292.911C579.458 292.911 582.477 293.53 585.186 294.767C587.896 296.004 590.029 297.754 591.586 300.015C593.144 302.276 593.922 304.858 593.922 307.759L593.922 308.079C593.922 308.89 593.517 309.295 592.706 309.295L583.298 309.295C582.488 309.295 582.082 309.124 582.082 308.783L582.082 308.271C582.082 306.991 581.506 305.828 580.354 304.783C579.202 303.738 577.645 303.215 575.682 303.215C574.317 303.215 573.24 303.492 572.45 304.047C571.661 304.602 571.266 305.37 571.266 306.351C571.266 307.119 571.554 307.77 572.13 308.303C572.706 308.836 573.592 309.348 574.786 309.839C575.981 310.33 577.816 310.959 580.29 311.727C580.632 311.855 582.136 312.314 584.802 313.103C587.469 313.892 589.698 315.322 591.49 317.391C593.282 319.46 594.178 321.967 594.178 324.911C594.178 327.684 593.453 330.116 592.002 332.207C590.552 334.298 588.514 335.908 585.89 337.039C583.266 338.17 580.248 338.735 576.834 338.735Z"/>
<path d="M630.85 302.511C630.85 303.322 630.445 303.727 629.634 303.727L610.946 303.727C610.605 303.727 610.434 303.898 610.434 304.239L610.434 309.871C610.434 310.212 610.605 310.383 610.946 310.383L622.338 310.383C623.149 310.383 623.554 310.788 623.554 311.599L623.554 319.407C623.554 320.218 623.149 320.623 622.338 320.623L610.946 320.623C610.605 320.623 610.434 320.794 610.434 321.135L610.434 327.407C610.434 327.748 610.605 327.919 610.946 327.919L629.634 327.919C630.445 327.919 630.85 328.324 630.85 329.135L630.85 337.007C630.85 337.818 630.445 338.223 629.634 338.223L599.618 338.223C598.808 338.223 598.402 337.818 598.402 337.007L598.402 294.639C598.402 293.828 598.808 293.423 599.618 293.423L629.634 293.423C630.445 293.423 630.85 293.828 630.85 294.639L630.85 302.511Z"/>
</g>
</svg>
