<?xml version="1.0" encoding="UTF-8" standalone="no"?>
<!DOCTYPE svg PUBLIC "-//W3C//DTD SVG 1.1//EN" "http://www.w3.org/Graphics/SVG/1.1/DTD/svg11.dtd">
<!-- Created with Vectornator (http://vectornator.io/) -->
<svg height="100%" stroke-miterlimit="10" style="fill-rule:nonzero;clip-rule:evenodd;stroke-linecap:round;stroke-linejoin:round;" version="1.1" viewBox="470.299 282.383 362.324 101.807" width="100%" xml:space="preserve" xmlns="http://www.w3.org/2000/svg" xmlns:vectornator="http://vectornator.io" xmlns:xlink="http://www.w3.org/1999/xlink">
<defs/>
<g id="Layer-1" vectornator:layerName="Layer 1">
<g fill="#e60079" opacity="1" stroke="none" vectornator:layerName="Text 1">
<path d="M500.256 324.336C498.841 323.281 497.221 322.567 495.725 321.642C495.638 319.388 496.066 317.154 496.047 314.9C495.799 313.317 493.508 313.094 492.726 314.354C490.094 317.576 488.437 321.443 486.302 324.988C486.388 322.014 486.699 319.035 486.388 316.067C486.314 314.869 485.408 313.665 484.11 313.771C482.838 314.019 482.056 315.155 481.354 316.136C478.455 320.512 476.177 325.261 473.421 329.724C473.607 327.179 473.65 324.559 474.557 322.138C475.022 321.232 474.917 320.22 474.842 319.246C474.495 319.109 473.806 318.848 473.458 318.712C473.141 318.855 472.508 319.128 472.192 319.264C471.006 322.858 470.615 326.658 470.323 330.413C470.23 332.015 470.317 334.343 472.272 334.765C473.737 334.833 474.706 333.467 475.451 332.393C478.256 327.943 480.541 323.181 483.384 318.749C483.427 321.971 482.894 325.236 483.508 328.427C483.961 329.979 486.146 330.481 487.152 329.172C489.393 326.521 490.746 323.256 492.466 320.258C492.236 323.771 495.644 325.54 498.437 326.614C499.803 327.322 501.473 325.503 500.256 324.336Z"/>
<path d="M520.855 321.431C518.583 322.226 516.069 323.163 514.778 325.342C513.779 326.745 512.965 328.651 511.029 328.862C509.973 324.101 511.395 319.302 511.507 314.535C511.581 313.231 510.011 313.231 509.104 313.15C508.794 313.771 508.484 314.386 508.179 315.007C504.747 315.516 502.431 318.383 500.544 321.047C498.471 324.256 496.646 327.974 496.931 331.897C496.962 334.126 499.203 336.28 501.463 335.429C504.579 334.306 506.274 331.134 507.546 328.285C508.242 329.979 509.384 331.891 511.457 331.922C514.257 331.891 515.889 329.321 517.267 327.242C518.372 325.243 520.973 325.156 522.475 323.629C523.258 322.605 521.985 321.009 520.855 321.431ZM503.226 329.874C502.543 331.09 501.438 331.972 500.283 332.717C499.464 329.358 501.109 326.081 502.723 323.238C503.933 321.164 505.541 319.29 507.59 318.005C506.683 322.127 505.436 326.248 503.226 329.874Z"/>
<path d="M539.922 323.016C537.662 324.226 535.626 325.809 533.422 327.119C530.25 322.718 533.379 317.187 532.063 312.37C531.188 311.383 529.63 311.532 528.984 312.692C526.315 316.827 525.278 321.749 522.925 326.051C523.397 322.941 523.546 319.645 525.185 316.87C525.955 315.312 523.285 313.636 522.391 315.424C520.902 318.695 520.455 322.345 519.915 325.877C519.84 327.696 519.275 329.881 520.554 331.421C521.851 332.55 523.608 331.526 524.279 330.223C526.246 327.032 527.55 323.494 528.872 320.005C528.705 322.966 528.779 326.237 530.753 328.64C531.678 329.894 533.472 330.607 534.906 329.751C537.29 328.435 539.68 327.007 541.716 325.188C542.87 324.083 541.138 322.215 539.922 323.016Z"/>
<path d="M544.939 310.852C546.379 311.455 547.763 309.474 546.745 308.307C545.926 308.003 545.169 308.09 544.473 308.574C543.859 309.214 543.865 310.753 544.939 310.852ZM558.568 323.177C556.47 323.45 554.452 324.145 552.503 324.927C548.84 326.442 546.165 329.558 542.565 331.185C541.391 326.765 543.067 322.264 544.433 318.087C544.812 316.864 545.948 315.064 544.309 314.275C542.707 313.804 542.198 315.715 541.758 316.827C540.342 321.197 538.573 325.728 539.181 330.403C539.324 332.532 541.366 334.599 543.589 334.003C546.922 332.979 549.263 330.167 552.273 328.528C554.359 327.243 556.836 326.92 559.07 325.995C560.523 325.517 560.206 323.04 558.568 323.177Z"/>
<path d="M571.685 317.498C569.289 317.777 567.023 318.814 564.583 318.733C565.378 316.324 566.557 314.077 567.538 311.749C568.357 310.539 566.65 308.801 565.539 309.893C563.621 312.618 562.721 315.884 561.256 318.845C560.325 319.633 558.903 319.683 558.09 320.632C557.457 321.93 558.785 322.737 559.741 323.271C554.639 338.684 551.957 355.053 552.876 371.305C553.143 374.893 553.441 378.586 554.856 381.938C555.365 383.143 556.526 384.459 557.978 384.142C560.12 383.689 560.759 381.274 561.455 379.505C563.187 373.85 563.876 367.947 564.745 362.118C566.526 348.722 567.594 335.195 567.358 321.675C569.239 321.061 571.467 321.048 573.032 319.751C574.174 318.987 572.783 317.175 571.685 317.498ZM560.977 366.401C560.188 371.243 559.536 376.172 557.662 380.747C556.073 376.147 555.936 371.23 555.781 366.413C555.694 353.166 557.873 339.957 561.69 327.287C562.199 325.493 562.783 323.711 563.64 322.042C564.471 323.215 564.279 324.692 564.31 326.039C564.118 339.547 563.044 353.048 560.977 366.401Z"/>
<path d="M589.289 317.283C587.215 318.991 585.595 321.157 583.683 323.025C581.697 324.999 579.58 327.303 576.65 327.675C574.614 327.818 573.13 326.036 572.801 324.18C576.954 322.802 580.747 319.189 581.455 314.769C581.635 312.373 578.792 311.548 577.004 312.51C573.031 314.347 570.579 318.587 569.84 322.771C569.145 326.595 572.075 330.593 576.017 330.773C580.555 330.884 583.919 327.296 586.824 324.267C588.42 322.516 590.239 320.921 591.517 318.904C592.194 317.538 590.363 316.228 589.289 317.283ZM578.444 315.198C577.451 317.612 575.601 319.518 573.491 321.002C574.471 318.593 576.079 316.396 578.444 315.198Z"/>
<path d="M610.467 321.086C608.493 321.247 606.768 322.246 605.104 323.221C604.942 321.601 604.117 319.844 602.31 319.664C598.561 319.136 594.83 320.328 591.224 321.235C592.769 317.864 595.786 315.517 598.654 313.314C600.057 312.159 601.764 311.545 603.564 311.383C605.265 310.39 603.36 307.919 601.789 308.59C598.462 309.471 595.724 311.737 593.16 313.934C591.18 315.846 588.809 317.814 588.319 320.676C588.014 322.818 590.268 324.798 592.347 324.189C595.439 323.308 598.605 322.606 601.845 322.563C601.59 323.5 601.981 324.847 600.994 325.431C597.276 327.715 593.378 329.751 589.982 332.52C586.556 335.456 583.607 339.237 582.595 343.718C582.154 345.494 582.639 347.747 584.457 348.548C586.835 349.386 589.231 347.989 591.1 346.611C596.972 342.061 601.206 335.605 603.595 328.609C604.067 326.703 606.227 326.294 607.68 325.369C609.294 324.568 611.994 323.258 610.467 321.086ZM591.888 341.825C590.082 343.588 588.076 345.32 585.531 345.854C585.637 342.34 587.685 339.274 589.976 336.76C592.807 333.817 596.413 331.8 599.883 329.714C598.033 334.221 595.346 338.386 591.888 341.825Z"/>
<path d="M635.688 298.193C630.132 297.963 624.589 298.677 619.045 298.857C620.628 293.891 621.026 288.434 623.776 283.915C623.707 282.096 620.852 281.798 620.405 283.555C618.443 288.534 617.338 293.81 615.78 298.925C612.049 299.217 608.281 299.111 604.582 299.689C603.34 299.9 601.67 300.328 601.577 301.855C601.857 302.985 602.875 303.779 604.023 303.904C604.6 303.45 605.134 302.929 605.687 302.426C608.778 302.079 611.894 302.072 615.004 302.048C612.72 311.055 610.293 320.025 607.996 329.026C607.741 330.329 607.176 331.72 607.785 333.017C609.2 333.899 610.349 332.545 610.541 331.217C613.272 321.521 615.662 311.731 618.269 302.004C622.416 301.88 626.544 301.445 630.691 301.365C632.559 301.259 634.49 301.284 636.29 300.682C637.519 300.148 636.985 298.075 635.688 298.193Z"/>
<path d="M653.479 312.533C651.996 312.602 650.593 313.117 649.165 313.465C647.83 312.819 645.819 312.149 644.975 313.856C643.33 317.766 643.827 322.286 641.828 326.103C640.909 323.037 641.157 319.834 641.164 316.686C641.132 315.19 639.047 314.445 638.209 315.761C635.508 320.02 635.837 326.022 631.722 329.381C629.984 324.427 632.256 319.25 631.753 314.172C631.008 313.44 629.86 312.298 628.823 313.247C627.327 314.178 627.563 316.221 628.829 317.245C628.637 321.361 627.103 325.631 628.544 329.673C629.133 331.553 631.349 332.894 633.236 331.982C636.129 330.498 637.259 327.196 638.277 324.334C638.6 326.035 638.972 327.997 640.53 329.039C641.983 329.784 643.783 329.008 644.491 327.605C646.44 324.21 646.601 320.175 647.284 316.407C649.978 316.804 653.039 316.196 654.969 314.154C654.547 313.533 654.05 312.993 653.479 312.533Z"/>
<path d="M669.282 321.33C669.58 319.009 670.138 316.668 669.884 314.328C669.679 312.671 667.606 312 666.321 312.888C662.838 314.719 660.119 317.705 657.816 320.84C660.79 311.64 663.806 302.453 666.358 293.129C667.028 290.112 668.127 287.015 667.624 283.899C667.239 282.266 665.011 281.906 663.993 283.154C661.454 285.897 660.169 289.504 658.679 292.868C655.315 301.379 652.409 310.181 651.379 319.313C651.155 321.721 650.839 324.62 652.887 326.377C652.54 327.91 652.049 329.431 651.993 331.014C652.136 332.181 653.558 332.765 654.483 332.044C655.408 331.244 655.867 330.064 656.482 329.028C659.07 324.117 662.242 319.319 666.848 316.066C666.587 318.748 665.83 321.467 666.321 324.161C666.482 325.539 668.35 326.352 669.412 325.359C670.821 324.161 672.764 322.969 673.099 321.045C672.379 318.884 670.293 320.194 669.282 321.33ZM654.203 322.404C654.222 315.737 656.444 309.312 658.319 302.981C659.995 297.897 661.826 292.831 664.315 288.082C661.77 299.746 657.444 310.926 654.203 322.404Z"/>
<path d="M689.657 319.066C687.776 319.016 685.914 319.364 684.052 319.537C683.22 317.278 682.345 314.727 680.141 313.442C678.409 312.368 675.827 312.492 674.61 314.267C672.319 317.253 670.091 320.493 669.408 324.268C668.868 326.788 669.451 329.674 671.357 331.493C672.779 332.871 674.982 333.393 676.838 332.623C681.047 331.115 683.412 326.8 684.269 322.635C686.255 322.412 688.304 322.412 690.228 321.803C691.569 321.288 691.172 318.966 689.657 319.066ZM678.372 315.887C679.626 317.023 680.433 318.519 680.979 320.109C679.017 320.326 677.633 318.991 676.913 317.315C677.397 316.837 677.881 316.365 678.372 315.887ZM675.783 329.718C674.393 330.32 672.99 329.141 672.63 327.837C671.655 324.919 673.226 322.033 674.386 319.432C675.746 321.834 678.192 323.374 680.991 323.312C680.011 325.906 678.527 328.681 675.783 329.718Z"/>
<path d="M727.4 318.829C725.916 317.916 724.451 319.257 723.054 319.71C721.856 319.127 720.72 318.195 719.336 318.189C717.995 318.382 716.952 319.319 715.866 320.045C716.319 317.773 716.983 315.514 717.033 313.18C717.213 311.572 714.91 310.815 714.178 312.28C712.141 315.899 710.676 320.089 707.3 322.739C706.449 323.428 704.959 324.024 704.332 322.739C703.116 319.927 703.575 316.768 703.923 313.819C704.239 312.311 702.036 311.013 701.247 312.627C700.428 315.203 700.639 317.984 700.726 320.654C700.844 323.224 702.153 326.396 705.108 326.582C708.355 326.811 710.565 324.043 712.458 321.833C712.079 323.174 711.881 324.682 710.794 325.675C705.94 330.834 700.558 335.713 697.287 342.107C695.325 345.968 693.662 350.369 694.568 354.758C694.928 356.732 696.803 358.42 698.895 357.961C701.818 357.421 703.774 354.826 705.326 352.492C710.23 344.515 712.396 335.279 714.662 326.302C715.816 324.285 717.703 322.82 719.38 321.249C720.838 322.088 722.483 323.422 724.259 322.615C725.842 322.081 728.579 320.952 727.4 318.829ZM702.811 350.649C701.551 352.474 700.148 354.702 697.727 354.938C696.666 350.189 698.82 345.521 701.191 341.53C703.681 337.495 706.971 334.037 710.335 330.728C708.535 337.594 706.505 344.528 702.811 350.649Z"/>
<path d="M744.121 319.066C742.24 319.016 740.378 319.364 738.516 319.537C737.684 317.278 736.809 314.727 734.605 313.442C732.873 312.368 730.291 312.492 729.074 314.267C726.783 317.253 724.555 320.493 723.872 324.268C723.332 326.788 723.915 329.674 725.821 331.493C727.243 332.871 729.446 333.393 731.302 332.623C735.511 331.115 737.876 326.8 738.733 322.635C740.719 322.412 742.768 322.412 744.692 321.803C746.033 321.288 745.636 318.966 744.121 319.066ZM732.836 315.887C734.09 317.023 734.897 318.519 735.443 320.109C733.481 320.326 732.097 318.991 731.377 317.315C731.861 316.837 732.345 316.365 732.836 315.887ZM730.247 329.718C728.857 330.32 727.454 329.141 727.094 327.837C726.119 324.919 727.69 322.033 728.85 319.432C730.21 321.834 732.656 323.374 735.455 323.312C734.475 325.906 732.991 328.681 730.247 329.718Z"/>
<path d="M763.25 319.448C760.42 319.982 759.551 323.359 756.875 324.215C756.59 319.976 759.563 316.413 759.749 312.253C759.786 310.683 757.279 310.366 756.645 311.645C755.218 313.861 754.671 316.499 754.15 319.051C753.691 322.03 752.095 324.675 750.475 327.164C749.637 328.151 748.842 329.585 747.402 329.641C746.198 328.53 746.024 326.816 745.993 325.277C745.925 321.832 745.999 318.244 747.452 315.053C747.831 314.314 748.11 313.154 747.21 312.657C746.229 311.614 745.006 312.986 744.683 313.923C743.094 318.324 742.517 323.148 743.125 327.797C743.448 330.386 745.577 333.334 748.513 332.676C751.456 331.882 753.02 328.995 754.522 326.587C757.707 329.02 760.749 325.575 762.76 323.322C763.958 321.701 766.441 322.856 767.745 321.459C767.8 321 767.918 320.081 767.974 319.622C766.453 319.051 764.802 318.976 763.25 319.448Z"/>
<path d="M797.975 321.431C795.703 322.226 793.189 323.163 791.898 325.342C790.899 326.745 790.085 328.651 788.149 328.862C787.093 324.101 788.515 319.302 788.627 314.535C788.701 313.231 787.131 313.231 786.224 313.15C785.914 313.771 785.604 314.386 785.299 315.007C781.867 315.516 779.551 318.383 777.664 321.047C775.591 324.256 773.766 327.974 774.051 331.897C774.082 334.126 776.323 336.28 778.583 335.429C781.699 334.306 783.394 331.134 784.666 328.285C785.362 329.979 786.504 331.891 788.577 331.922C791.377 331.891 793.009 329.321 794.387 327.242C795.492 325.243 798.093 325.156 799.595 323.629C800.378 322.605 799.105 321.009 797.975 321.431ZM780.346 329.874C779.663 331.09 778.558 331.972 777.403 332.717C776.584 329.358 778.229 326.081 779.843 323.238C781.053 321.164 782.661 319.29 784.71 318.005C783.803 322.127 782.556 326.248 780.346 329.874Z"/>
<path d="M814.524 318.227C814.139 318.035 813.37 317.637 812.985 317.439C811.756 318.208 810.57 319.046 809.434 319.94C809.459 318.202 809.726 315.601 807.497 315.111C804.853 315.198 803.462 317.898 801.929 319.686C802.525 318.215 802.991 316.613 804.158 315.471C805.12 314.577 805.579 313.304 805.672 312.019C805.151 310.449 803.077 310.449 802.426 311.914C799.837 316.241 798.062 321.039 796.609 325.856C796.156 328.153 795.169 331.182 797.087 333.057C799.278 334.218 800.7 331.642 801.252 329.903C802.419 326.16 803.593 322.318 806.156 319.257C806.305 320.766 806.001 322.901 807.721 323.628C809.018 324.236 810.216 323.137 811.253 322.492C812.681 321.374 814.766 320.375 814.524 318.227Z"/>
<path d="M830.249 317.283C828.175 318.991 826.555 321.157 824.643 323.025C822.657 324.999 820.54 327.303 817.61 327.675C815.574 327.818 814.09 326.036 813.761 324.18C817.914 322.802 821.707 319.189 822.415 314.769C822.595 312.373 819.752 311.548 817.964 312.51C813.991 314.347 811.539 318.587 810.8 322.771C810.105 326.595 813.035 330.593 816.977 330.773C821.515 330.884 824.879 327.296 827.784 324.267C829.38 322.516 831.199 320.921 832.477 318.904C833.154 317.538 831.323 316.228 830.249 317.283ZM819.404 315.198C818.411 317.612 816.561 319.518 814.451 321.002C815.431 318.593 817.039 316.396 819.404 315.198Z"/>
</g>
</g>
</svg>
