<?xml version="1.0" encoding="UTF-8" standalone="no"?>
<!DOCTYPE svg PUBLIC "-//W3C//DTD SVG 1.1//EN" "http://www.w3.org/Graphics/SVG/1.1/DTD/svg11.dtd">
<!-- Created with Vectornator (http://vectornator.io/) -->
<svg height="100%" stroke-miterlimit="10" style="fill-rule:nonzero;clip-rule:evenodd;stroke-linecap:round;stroke-linejoin:round;" version="1.1" viewBox="470.299 282.383 392.98 101.807" width="100%" xml:space="preserve" xmlns="http://www.w3.org/2000/svg" xmlns:vectornator="http://vectornator.io" xmlns:xlink="http://www.w3.org/1999/xlink">
<defs/>
<g id="Layer-1" vectornator:layerName="Layer 1">
<g fill="#e60079" opacity="1" stroke="none" vectornator:layerName="Text 1">
<path d="M500.256 324.336C498.841 323.281 497.221 322.567 495.725 321.642C495.638 319.388 496.066 317.154 496.047 314.9C495.799 313.317 493.508 313.094 492.726 314.354C490.094 317.576 488.437 321.443 486.302 324.988C486.388 322.014 486.699 319.035 486.388 316.067C486.314 314.869 485.408 313.665 484.11 313.771C482.838 314.019 482.056 315.155 481.354 316.136C478.455 320.512 476.177 325.261 473.421 329.724C473.607 327.179 473.65 324.559 474.557 322.138C475.022 321.232 474.917 320.22 474.842 319.246C474.495 319.109 473.806 318.848 473.458 318.712C473.141 318.855 472.508 319.128 472.192 319.264C471.006 322.858 470.615 326.658 470.323 330.413C470.23 332.015 470.317 334.343 472.272 334.765C473.737 334.833 474.706 333.467 475.451 332.393C478.256 327.943 480.541 323.181 483.384 318.749C483.427 321.971 482.894 325.236 483.508 328.427C483.961 329.979 486.146 330.481 487.152 329.172C489.393 326.521 490.746 323.256 492.466 320.258C492.236 323.771 495.644 325.54 498.437 326.614C499.803 327.322 501.473 325.503 500.256 324.336Z"/>
<path d="M520.855 321.431C518.583 322.226 516.069 323.163 514.778 325.342C513.779 326.745 512.965 328.651 511.029 328.862C509.973 324.101 511.395 319.302 511.507 314.535C511.581 313.231 510.011 313.231 509.104 313.15C508.794 313.771 508.484 314.386 508.179 315.007C504.747 315.516 502.431 318.383 500.544 321.047C498.471 324.256 496.646 327.974 496.931 331.897C496.962 334.126 499.203 336.28 501.463 335.429C504.579 334.306 506.274 331.134 507.546 328.285C508.242 329.979 509.384 331.891 511.457 331.922C514.257 331.891 515.889 329.321 517.267 327.242C518.372 325.243 520.973 325.156 522.475 323.629C523.258 322.605 521.985 321.009 520.855 321.431ZM503.226 329.874C502.543 331.09 501.438 331.972 500.283 332.717C499.464 329.358 501.109 326.081 502.723 323.238C503.933 321.164 505.541 319.29 507.59 318.005C506.683 322.127 505.436 326.248 503.226 329.874Z"/>
<path d="M539.922 323.016C537.662 324.226 535.626 325.809 533.422 327.119C530.25 322.718 533.379 317.187 532.063 312.37C531.188 311.383 529.63 311.532 528.984 312.692C526.315 316.827 525.278 321.749 522.925 326.051C523.397 322.941 523.546 319.645 525.185 316.87C525.955 315.312 523.285 313.636 522.391 315.424C520.902 318.695 520.455 322.345 519.915 325.877C519.84 327.696 519.275 329.881 520.554 331.421C521.851 332.55 523.608 331.526 524.279 330.223C526.246 327.032 527.55 323.494 528.872 320.005C528.705 322.966 528.779 326.237 530.753 328.64C531.678 329.894 533.472 330.607 534.906 329.751C537.29 328.435 539.68 327.007 541.716 325.188C542.87 324.083 541.138 322.215 539.922 323.016Z"/>
<path d="M544.939 310.852C546.379 311.455 547.763 309.474 546.745 308.307C545.926 308.003 545.169 308.09 544.473 308.574C543.859 309.214 543.865 310.753 544.939 310.852ZM558.568 323.177C556.47 323.45 554.452 324.145 552.503 324.927C548.84 326.442 546.165 329.558 542.565 331.185C541.391 326.765 543.067 322.264 544.433 318.087C544.812 316.864 545.948 315.064 544.309 314.275C542.707 313.804 542.198 315.715 541.758 316.827C540.342 321.197 538.573 325.728 539.181 330.403C539.324 332.532 541.366 334.599 543.589 334.003C546.922 332.979 549.263 330.167 552.273 328.528C554.359 327.243 556.836 326.92 559.07 325.995C560.523 325.517 560.206 323.04 558.568 323.177Z"/>
<path d="M571.685 317.498C569.289 317.777 567.023 318.814 564.583 318.733C565.378 316.324 566.557 314.077 567.538 311.749C568.357 310.539 566.65 308.801 565.539 309.893C563.621 312.618 562.721 315.884 561.256 318.845C560.325 319.633 558.903 319.683 558.09 320.632C557.457 321.93 558.785 322.737 559.741 323.271C554.639 338.684 551.957 355.053 552.876 371.305C553.143 374.893 553.441 378.586 554.856 381.938C555.365 383.143 556.526 384.459 557.978 384.142C560.12 383.689 560.759 381.274 561.455 379.505C563.187 373.85 563.876 367.947 564.745 362.118C566.526 348.722 567.594 335.195 567.358 321.675C569.239 321.061 571.467 321.048 573.032 319.751C574.174 318.987 572.783 317.175 571.685 317.498ZM560.977 366.401C560.188 371.243 559.536 376.172 557.662 380.747C556.073 376.147 555.936 371.23 555.781 366.413C555.694 353.166 557.873 339.957 561.69 327.287C562.199 325.493 562.783 323.711 563.64 322.042C564.471 323.215 564.279 324.692 564.31 326.039C564.118 339.547 563.044 353.048 560.977 366.401Z"/>
<path d="M589.289 317.283C587.215 318.991 585.595 321.157 583.683 323.025C581.697 324.999 579.58 327.303 576.65 327.675C574.614 327.818 573.13 326.036 572.801 324.18C576.954 322.802 580.747 319.189 581.455 314.769C581.635 312.373 578.792 311.548 577.004 312.51C573.031 314.347 570.579 318.587 569.84 322.771C569.145 326.595 572.075 330.593 576.017 330.773C580.555 330.884 583.919 327.296 586.824 324.267C588.42 322.516 590.239 320.921 591.517 318.904C592.194 317.538 590.363 316.228 589.289 317.283ZM578.444 315.198C577.451 317.612 575.601 319.518 573.491 321.002C574.471 318.593 576.079 316.396 578.444 315.198Z"/>
<path d="M610.467 321.086C608.493 321.247 606.768 322.246 605.104 323.221C604.942 321.601 604.117 319.844 602.31 319.664C598.561 319.136 594.83 320.328 591.224 321.235C592.769 317.864 595.786 315.517 598.654 313.314C600.057 312.159 601.764 311.545 603.564 311.383C605.265 310.39 603.36 307.919 601.789 308.59C598.462 309.471 595.724 311.737 593.16 313.934C591.18 315.846 588.809 317.814 588.319 320.676C588.014 322.818 590.268 324.798 592.347 324.189C595.439 323.308 598.605 322.606 601.845 322.563C601.59 323.5 601.981 324.847 600.994 325.431C597.276 327.715 593.378 329.751 589.982 332.52C586.556 335.456 583.607 339.237 582.595 343.718C582.154 345.494 582.639 347.747 584.457 348.548C586.835 349.386 589.231 347.989 591.1 346.611C596.972 342.061 601.206 335.605 603.595 328.609C604.067 326.703 606.227 326.294 607.68 325.369C609.294 324.568 611.994 323.258 610.467 321.086ZM591.888 341.825C590.082 343.588 588.076 345.32 585.531 345.854C585.637 342.34 587.685 339.274 589.976 336.76C592.807 333.817 596.413 331.8 599.883 329.714C598.033 334.221 595.346 338.386 591.888 341.825Z"/>
<path d="M635.688 298.193C630.132 297.963 624.589 298.677 619.045 298.857C620.628 293.891 621.026 288.434 623.776 283.915C623.707 282.096 620.852 281.798 620.405 283.555C618.443 288.534 617.338 293.81 615.78 298.925C612.049 299.217 608.281 299.111 604.582 299.689C603.34 299.9 601.67 300.328 601.577 301.855C601.857 302.985 602.875 303.779 604.023 303.904C604.6 303.45 605.134 302.929 605.687 302.426C608.778 302.079 611.894 302.072 615.004 302.048C612.72 311.055 610.293 320.025 607.996 329.026C607.741 330.329 607.176 331.72 607.785 333.017C609.2 333.899 610.349 332.545 610.541 331.217C613.272 321.521 615.662 311.731 618.269 302.004C622.416 301.88 626.544 301.445 630.691 301.365C632.559 301.259 634.49 301.284 636.29 300.682C637.519 300.148 636.985 298.075 635.688 298.193Z"/>
<path d="M634.409 317.283C632.335 318.991 630.715 321.157 628.803 323.025C626.817 324.999 624.7 327.303 621.77 327.675C619.734 327.818 618.25 326.036 617.921 324.18C622.074 322.802 625.867 319.189 626.575 314.769C626.755 312.373 623.912 311.548 622.124 312.51C618.151 314.347 615.699 318.587 614.96 322.771C614.265 326.595 617.195 330.593 621.137 330.773C625.675 330.884 629.039 327.296 631.944 324.267C633.54 322.516 635.359 320.921 636.637 318.904C637.314 317.538 635.483 316.228 634.409 317.283ZM623.564 315.198C622.571 317.612 620.721 319.518 618.611 321.002C619.591 318.593 621.199 316.396 623.564 315.198Z"/>
<path d="M672.232 319.886C670.681 320.314 669.315 321.214 667.794 321.705C667.093 320.606 666.54 319.228 665.243 318.725C663.778 318.03 662.325 318.986 661.053 319.613C661.071 319.159 661.102 318.241 661.121 317.788C660.829 317.533 660.556 317.279 660.283 317.03C661.909 315.031 659.544 312.492 657.334 312.778C649.693 312.946 643.411 320.37 643.398 327.819C643.274 329.706 644.702 331.86 646.781 331.599C649.339 331.308 651.238 329.334 653.113 327.751C647.371 337.41 642.399 347.652 639.494 358.54C638.755 362.079 637.725 365.753 638.395 369.379C638.656 371.191 640.4 372.96 642.343 372.427C644.1 371.942 645.503 370.651 646.694 369.317C649.295 366.25 651.102 362.563 652.25 358.72C654.355 351.327 654.926 343.63 655.652 336.013C656.695 330.494 659.203 324.703 664.02 321.487C664.796 322.623 665.361 324.107 666.714 324.69C669.054 325.249 671.289 323.827 673.046 322.437C674.064 321.63 673.319 320.146 672.232 319.886ZM647.191 363.022C645.757 365.381 644.286 368.354 641.536 369.286C640.884 366.567 641.629 363.786 642.107 361.104C644.193 351.774 648.308 343.04 652.703 334.598C651.524 344.145 651.474 354.201 647.191 363.022ZM646.533 328.638C646.198 322.642 650.717 316.658 656.67 315.602C657.688 315.261 658.284 316.347 659.035 316.813C655.23 321.078 651.698 325.932 646.533 328.638Z"/>
<path d="M691.442 319.448C688.612 319.982 687.743 323.359 685.067 324.215C684.782 319.976 687.755 316.413 687.941 312.253C687.978 310.683 685.471 310.366 684.837 311.645C683.41 313.861 682.863 316.499 682.342 319.051C681.883 322.03 680.287 324.675 678.667 327.164C677.829 328.151 677.034 329.585 675.594 329.641C674.39 328.53 674.216 326.816 674.185 325.277C674.117 321.832 674.191 318.244 675.644 315.053C676.023 314.314 676.302 313.154 675.402 312.657C674.421 311.614 673.198 312.986 672.875 313.923C671.286 318.324 670.709 323.148 671.317 327.797C671.64 330.386 673.769 333.334 676.705 332.676C679.648 331.882 681.212 328.995 682.714 326.587C685.899 329.02 688.941 325.575 690.952 323.322C692.15 321.701 694.633 322.856 695.937 321.459C695.992 321 696.11 320.081 696.166 319.622C694.645 319.051 692.994 318.976 691.442 319.448Z"/>
<path d="M712.233 317.283C710.159 318.991 708.539 321.157 706.627 323.025C704.641 324.999 702.524 327.303 699.594 327.675C697.558 327.818 696.074 326.036 695.745 324.18C699.898 322.802 703.691 319.189 704.399 314.769C704.579 312.373 701.736 311.548 699.948 312.51C695.975 314.347 693.523 318.587 692.784 322.771C692.089 326.595 695.019 330.593 698.961 330.773C703.499 330.884 706.863 327.296 709.768 324.267C711.364 322.516 713.183 320.921 714.461 318.904C715.138 317.538 713.307 316.228 712.233 317.283ZM701.388 315.198C700.395 317.612 698.545 319.518 696.435 321.002C697.415 318.593 699.023 316.396 701.388 315.198Z"/>
<path d="M739.936 324.336C738.521 323.281 736.901 322.567 735.405 321.642C735.318 319.388 735.746 317.154 735.727 314.9C735.479 313.317 733.188 313.094 732.406 314.354C729.774 317.576 728.117 321.443 725.982 324.988C726.068 322.014 726.379 319.035 726.068 316.067C725.994 314.869 725.088 313.665 723.79 313.771C722.518 314.019 721.736 315.155 721.034 316.136C718.135 320.512 715.857 325.261 713.101 329.724C713.287 327.179 713.33 324.559 714.237 322.138C714.702 321.232 714.597 320.22 714.522 319.246C714.175 319.109 713.486 318.848 713.138 318.712C712.821 318.855 712.188 319.128 711.872 319.264C710.686 322.858 710.295 326.658 710.003 330.413C709.91 332.015 709.997 334.343 711.952 334.765C713.417 334.833 714.386 333.467 715.131 332.393C717.936 327.943 720.221 323.181 723.064 318.749C723.107 321.971 722.574 325.236 723.188 328.427C723.641 329.979 725.826 330.481 726.832 329.172C729.073 326.521 730.426 323.256 732.146 320.258C731.916 323.771 735.324 325.54 738.117 326.614C739.483 327.322 741.153 325.503 739.936 324.336Z"/>
<path d="M772.473 314.249C770.568 313.746 768.829 315.099 766.967 315.142C765.887 314.801 764.875 314.292 763.801 313.951C762.709 313.957 761.958 314.838 761.598 315.788C759.791 320.046 759.115 324.659 758.165 329.159C757.941 330.357 757.42 331.481 756.768 332.505C754.937 326.751 756.47 320.512 754.701 314.758C754.055 312.945 751.417 313.38 750.939 315.099C750.182 316.303 751.721 316.905 752.46 317.514C753.013 322.834 751.963 328.427 753.944 333.529C754.502 335.205 756.52 336.329 758.152 335.373C760.207 334.045 760.822 331.475 761.337 329.24C762.088 325.31 762.864 321.381 764.155 317.594C767.085 319.047 770.208 317.818 773.001 316.67C773.578 315.968 773.522 314.466 772.473 314.249Z"/>
<path d="M788.665 319.066C786.784 319.016 784.922 319.364 783.06 319.537C782.228 317.278 781.353 314.727 779.149 313.442C777.417 312.368 774.835 312.492 773.618 314.267C771.327 317.253 769.099 320.493 768.416 324.268C767.876 326.788 768.459 329.674 770.365 331.493C771.787 332.871 773.99 333.393 775.846 332.623C780.055 331.115 782.42 326.8 783.277 322.635C785.263 322.412 787.312 322.412 789.236 321.803C790.577 321.288 790.18 318.966 788.665 319.066ZM777.38 315.887C778.634 317.023 779.441 318.519 779.987 320.109C778.025 320.326 776.641 318.991 775.921 317.315C776.405 316.837 776.889 316.365 777.38 315.887ZM774.791 329.718C773.401 330.32 771.998 329.141 771.638 327.837C770.663 324.919 772.234 322.033 773.394 319.432C774.754 321.834 777.2 323.374 779.999 323.312C779.019 325.906 777.535 328.681 774.791 329.718Z"/>
<path d="M812.655 318.303C809.495 318.738 805.323 318.012 803.412 321.233C800.711 325.734 797.638 331.035 792.25 332.537C789.842 329.03 790.096 324.511 790.705 320.501C791.437 316.54 792.989 312.282 796.546 310.022C798.272 310.892 798.669 312.81 797.713 314.43C798.154 314.914 798.601 315.392 799.054 315.876C803.058 313.995 800.717 307.136 796.521 307.39C793.2 307.453 791.257 310.705 789.805 313.275C787.179 318.707 786.384 325.188 788.017 331.029C788.613 333.456 790.705 335.952 793.461 335.442C797.03 334.648 799.612 331.749 801.959 329.129C803.778 327.112 804.796 324.542 806.447 322.407C809.327 320.718 813.735 322.748 816.038 319.874C815.305 318.651 814.089 317.956 812.655 318.303Z"/>
<path d="M831.785 317.283C829.711 318.991 828.091 321.157 826.179 323.025C824.193 324.999 822.076 327.303 819.146 327.675C817.11 327.818 815.626 326.036 815.297 324.18C819.45 322.802 823.243 319.189 823.951 314.769C824.131 312.373 821.288 311.548 819.5 312.51C815.527 314.347 813.075 318.587 812.336 322.771C811.641 326.595 814.571 330.593 818.513 330.773C823.051 330.884 826.415 327.296 829.32 324.267C830.916 322.516 832.735 320.921 834.013 318.904C834.69 317.538 832.859 316.228 831.785 317.283ZM820.94 315.198C819.947 317.612 818.097 319.518 815.987 321.002C816.967 318.593 818.575 316.396 820.94 315.198Z"/>
<path d="M860.905 317.283C858.831 318.991 857.211 321.157 855.299 323.025C853.313 324.999 851.196 327.303 848.266 327.675C846.23 327.818 844.746 326.036 844.417 324.18C848.57 322.802 852.363 319.189 853.071 314.769C853.251 312.373 850.408 311.548 848.62 312.51C844.647 314.347 842.195 318.587 841.456 322.771C840.761 326.595 843.691 330.593 847.633 330.773C852.171 330.884 855.535 327.296 858.44 324.267C860.036 322.516 861.855 320.921 863.133 318.904C863.81 317.538 861.979 316.228 860.905 317.283ZM850.06 315.198C849.067 317.612 847.217 319.518 845.107 321.002C846.087 318.593 847.695 316.396 850.06 315.198Z"/>
</g>
<path d="M818.245 307.141C818.143 307.326 818.905 305.718 819.151 305.271C819.544 304.558 820.398 302.419 821.229 302.179C822.604 301.781 823.966 305.83 823.927 306.783" fill="none" opacity="1" stroke="#e60079" stroke-linecap="round" stroke-linejoin="round" stroke-width="3.20392" vectornator:layerName="Curve 1"/>
<path d="M851.241 308.749C852.951 306.624 856.364 305.175 858.624 303.721" fill="none" opacity="1" stroke="#e60079" stroke-linecap="round" stroke-linejoin="round" stroke-width="3.20392" vectornator:layerName="Curve 2"/>
</g>
</svg>
